<svg xmlns="http://www.w3.org/2000/svg" xmlns:xlink="http://www.w3.org/1999/xlink" viewBox="0 0 72.77 78.15"><defs><style>.cls-1{isolation:isolate;}.cls-2{mix-blend-mode:multiply;}.cls-3{fill:#fff;opacity:0;}.cls-4{fill:#fefefe;opacity:0;}.cls-5{fill:#fdfdfd;opacity:0.01;}.cls-6{fill:#fcfcfd;opacity:0.01;}.cls-7{fill:#fbfbfc;opacity:0.01;}.cls-8{fill:#fafafb;opacity:0.02;}.cls-9{fill:#f9fafa;opacity:0.02;}.cls-10{fill:#f8f9f9;opacity:0.02;}.cls-11{fill:#f7f8f9;opacity:0.03;}.cls-12{fill:#f6f7f8;opacity:0.03;}.cls-13{fill:#f5f6f7;opacity:0.03;}.cls-14{fill:#f4f5f6;opacity:0.04;}.cls-15{fill:#f3f4f5;opacity:0.04;}.cls-16{fill:#f2f3f5;opacity:0.04;}.cls-17{fill:#f1f2f4;opacity:0.05;}.cls-18{fill:#f0f1f3;opacity:0.05;}.cls-19{fill:#eff1f2;opacity:0.05;}.cls-20{fill:#eef0f1;opacity:0.06;}.cls-21{fill:#edeff0;opacity:0.06;}.cls-22{fill:#eceef0;opacity:0.06;}.cls-23{fill:#ebedef;opacity:0.07;}.cls-24{fill:#eaecee;opacity:0.07;}.cls-25{fill:#e9ebed;opacity:0.07;}.cls-26{fill:#e8eaec;opacity:0.08;}.cls-27{fill:#e7e9ec;opacity:0.08;}.cls-28{fill:#e6e8eb;opacity:0.08;}.cls-29{fill:#e5e8ea;opacity:0.09;}.cls-30{fill:#e4e7e9;opacity:0.09;}.cls-31{fill:#e3e6e8;opacity:0.1;}.cls-32{fill:#e2e5e8;opacity:0.1;}.cls-33{fill:#e1e4e7;opacity:0.1;}.cls-34{fill:#e0e3e6;opacity:0.11;}.cls-35{fill:#dfe2e5;opacity:0.11;}.cls-36{fill:#dee1e4;opacity:0.11;}.cls-37{fill:#dde0e4;opacity:0.12;}.cls-38{fill:#dcdfe3;opacity:0.12;}.cls-39{fill:#dbdee2;opacity:0.12;}.cls-40{fill:#dadee1;opacity:0.13;}.cls-41{fill:#d9dde0;opacity:0.13;}.cls-42{fill:#d8dce0;opacity:0.13;}.cls-43{fill:#d7dbdf;opacity:0.14;}.cls-44{fill:#d6dade;opacity:0.14;}.cls-45{fill:#d5d9dd;opacity:0.14;}.cls-46{fill:#d4d8dc;opacity:0.15;}.cls-47{fill:#d3d7dc;opacity:0.15;}.cls-48{fill:#d2d6db;opacity:0.15;}.cls-49{fill:#d1d5da;opacity:0.16;}.cls-50{fill:#d0d5d9;opacity:0.16;}.cls-51{fill:#cfd4d8;opacity:0.16;}.cls-52{fill:#ced3d8;opacity:0.17;}.cls-53{fill:#cdd2d7;opacity:0.17;}.cls-54{fill:#ccd1d6;opacity:0.17;}.cls-55{fill:#cbd0d5;opacity:0.18;}.cls-56{fill:#cacfd4;opacity:0.18;}.cls-57{fill:#c9ced3;opacity:0.18;}.cls-58{fill:#c8cdd3;opacity:0.19;}.cls-59{fill:#c7ccd2;opacity:0.19;}.cls-60{fill:#c6ccd1;opacity:0.19;}.cls-61{fill:#c5cbd0;opacity:0.2;}.cls-62{fill:#c4cacf;opacity:0.2;}.cls-63{fill:#c3c9cf;opacity:0.2;}.cls-64{fill:#c2c8ce;opacity:0.21;}.cls-65{fill:#c1c7cd;opacity:0.21;}.cls-66{fill:#c0c6cc;opacity:0.21;}.cls-67{fill:#bfc5cb;opacity:0.22;}.cls-68{fill:#bec4cb;opacity:0.22;}.cls-69{fill:#bdc3ca;opacity:0.22;}.cls-70{fill:#bcc3c9;opacity:0.23;}.cls-71{fill:#bbc2c8;opacity:0.23;}.cls-72{fill:#bac1c7;opacity:0.23;}.cls-73{fill:#b9c0c7;opacity:0.24;}.cls-74{fill:#b8bfc6;opacity:0.24;}.cls-75{fill:#b7bec5;opacity:0.24;}.cls-76{fill:#b6bdc4;opacity:0.25;}.cls-77{fill:#b5bcc3;opacity:0.25;}.cls-78{fill:#b4bbc3;opacity:0.25;}.cls-79{fill:#b3bac2;opacity:0.26;}.cls-80{fill:#b2b9c1;opacity:0.26;}.cls-81{fill:#b1b9c0;opacity:0.27;}.cls-82{fill:#b0b8bf;opacity:0.27;}.cls-83{fill:#afb7bf;opacity:0.27;}.cls-84{fill:#aeb6be;opacity:0.28;}.cls-85{fill:#adb5bd;opacity:0.28;}.cls-86{fill:#acb4bc;opacity:0.28;}.cls-87{fill:#abb3bb;opacity:0.29;}.cls-88{fill:#aab2bb;opacity:0.29;}.cls-89{fill:#a9b1ba;opacity:0.29;}.cls-90{fill:#a8b0b9;opacity:0.3;}.cls-91{fill:#a7b0b8;opacity:0.3;}.cls-92{fill:#a6afb7;opacity:0.3;}.cls-93{fill:#a5aeb6;opacity:0.31;}.cls-94{fill:#a4adb6;opacity:0.31;}.cls-95{fill:#a3acb5;opacity:0.31;}.cls-96{fill:#a2abb4;opacity:0.32;}.cls-97{fill:#a1aab3;opacity:0.32;}.cls-98{fill:#a0a9b2;opacity:0.32;}.cls-99{fill:#9fa8b2;opacity:0.33;}.cls-100{fill:#9ea7b1;opacity:0.33;}.cls-101{fill:#9da7b0;opacity:0.33;}.cls-102{fill:#9ca6af;opacity:0.34;}.cls-103{fill:#9ba5ae;opacity:0.34;}.cls-104{fill:#9aa4ae;opacity:0.34;}.cls-105{fill:#99a3ad;opacity:0.35;}.cls-106{fill:#98a2ac;opacity:0.35;}.cls-107{fill:#97a1ab;opacity:0.35;}.cls-108{fill:#96a0aa;opacity:0.36;}.cls-109{fill:#959faa;opacity:0.36;}.cls-110{fill:#949ea9;opacity:0.36;}.cls-111{fill:#939da8;opacity:0.37;}.cls-112{fill:#929da7;opacity:0.37;}.cls-113{fill:#919ca6;opacity:0.37;}.cls-114{fill:#909ba6;opacity:0.38;}.cls-115{fill:#8f9aa5;opacity:0.38;}.cls-116{fill:#8e99a4;opacity:0.38;}.cls-117{fill:#8d98a3;opacity:0.39;}.cls-118{fill:#8c97a2;opacity:0.39;}.cls-119{fill:#8b96a2;opacity:0.39;}.cls-120{fill:#8a95a1;opacity:0.4;}.cls-121{fill:#8994a0;opacity:0.4;}.cls-122{fill:#88949f;opacity:0.4;}.cls-123{fill:#87939e;opacity:0.41;}.cls-124{fill:#86929d;opacity:0.41;}.cls-125{fill:#85919d;opacity:0.41;}.cls-126{fill:#84909c;opacity:0.42;}.cls-127{fill:#838f9b;opacity:0.42;}.cls-128{fill:#828e9a;opacity:0.42;}.cls-129{fill:#818d99;opacity:0.43;}.cls-130{fill:#808c99;opacity:0.43;}.cls-131{fill:#7f8b98;opacity:0.43;}.cls-132{fill:#7e8b97;opacity:0.44;}.cls-133{fill:#7d8a96;opacity:0.44;}.cls-134{fill:#7c8995;opacity:0.45;}.cls-135{fill:#7b8895;opacity:0.45;}.cls-136{fill:#7a8794;opacity:0.45;}.cls-137{fill:#798693;opacity:0.46;}.cls-138{fill:#788592;opacity:0.46;}.cls-139{fill:#778491;opacity:0.46;}.cls-140{fill:#768391;opacity:0.47;}.cls-141{fill:#758290;opacity:0.47;}.cls-142{fill:#74818f;opacity:0.47;}.cls-143{fill:#73818e;opacity:0.48;}.cls-144{fill:#72808d;opacity:0.48;}.cls-145{fill:#717f8d;opacity:0.48;}.cls-146{fill:#707e8c;opacity:0.49;}.cls-147{fill:#6f7d8b;opacity:0.49;}.cls-148{fill:#6e7c8a;opacity:0.49;}.cls-149{fill:#6d7b89;opacity:0.5;}.cls-150{fill:#6c7a89;opacity:0.5;}.cls-151{fill:#6b7988;opacity:0.5;}.cls-152{fill:#6a7887;opacity:0.51;}.cls-153{fill:#697886;opacity:0.51;}.cls-154{fill:#687785;opacity:0.51;}.cls-155{fill:#677685;opacity:0.52;}.cls-156{fill:#667584;opacity:0.52;}.cls-157{fill:#657483;opacity:0.52;}.cls-158{fill:#647382;opacity:0.53;}.cls-159{fill:#637281;opacity:0.53;}.cls-160{fill:#627180;opacity:0.53;}.cls-161{fill:#617080;opacity:0.54;}.cls-162{fill:#606f7f;opacity:0.54;}.cls-163{fill:#5f6f7e;opacity:0.54;}.cls-164{fill:#5e6e7d;opacity:0.55;}.cls-165{fill:#5d6d7c;opacity:0.55;}.cls-166{fill:#5c6c7c;opacity:0.55;}.cls-167{fill:#5b6b7b;opacity:0.56;}.cls-168{fill:#5a6a7a;opacity:0.56;}.cls-169{fill:#596979;opacity:0.56;}.cls-170{fill:#586878;opacity:0.57;}.cls-171{fill:#576778;opacity:0.57;}.cls-172{fill:#566677;opacity:0.57;}.cls-173{fill:#556676;opacity:0.58;}.cls-174{fill:#546575;opacity:0.58;}.cls-175{fill:#536474;opacity:0.58;}.cls-176{fill:#526374;opacity:0.59;}.cls-177{fill:#516273;opacity:0.59;}.cls-178{fill:#506172;opacity:0.59;}.cls-179{fill:#4f6071;opacity:0.6;}.cls-180{fill:#4e5f70;opacity:0.6;}.cls-181{fill:#4d5e70;opacity:0.6;}.cls-182{fill:#4c5d6f;opacity:0.61;}.cls-183{fill:#4b5c6e;opacity:0.61;}.cls-184{fill:#4a5c6d;opacity:0.62;}.cls-185{fill:#495b6c;opacity:0.62;}.cls-186{fill:#485a6c;opacity:0.62;}.cls-187{fill:#47596b;opacity:0.63;}.cls-188{fill:#46586a;opacity:0.63;}.cls-189{fill:#455769;opacity:0.63;}.cls-190{fill:#445668;opacity:0.64;}.cls-191{fill:#435568;opacity:0.64;}.cls-192{fill:#425467;opacity:0.64;}.cls-193{fill:#415366;opacity:0.65;}.cls-194{fill:#405365;opacity:0.65;}.cls-195{fill:#3f5264;opacity:0.65;}.cls-196{fill:#3e5163;opacity:0.66;}.cls-197{fill:#3d5063;opacity:0.66;}.cls-198{fill:#3c4f62;opacity:0.66;}.cls-199{fill:#3b4e61;opacity:0.67;}.cls-200{fill:#3a4d60;opacity:0.67;}.cls-201{fill:#394c5f;opacity:0.67;}.cls-202{fill:#384b5f;opacity:0.68;}.cls-203{fill:#374a5e;opacity:0.68;}.cls-204{fill:#364a5d;opacity:0.68;}.cls-205{fill:#35495c;opacity:0.69;}.cls-206{fill:#34485b;opacity:0.69;}.cls-207{fill:#33475b;opacity:0.69;}.cls-208{fill:#32465a;opacity:0.7;}.cls-209,.cls-211{fill:#314559;}.cls-209{opacity:0.7;}.cls-210{fill:url(#linear-gradient);}</style><linearGradient id="linear-gradient" x1="6420.69" y1="-322.18" x2="6483.67" y2="-322.18" gradientTransform="translate(6241.94 -1764.48) rotate(166.72)" gradientUnits="userSpaceOnUse"><stop offset="0" stop-color="#fff"/><stop offset="0.28" stop-color="#fafbfc"/><stop offset="0.6" stop-color="#edeff2"/><stop offset="0.93" stop-color="#d7dbe2"/><stop offset="1" stop-color="#d1d5de"/></linearGradient></defs><g class="cls-1"><g id="Layer_2" data-name="Layer 2"><g id="Layer_1-2" data-name="Layer 1"><g class="cls-2"><circle class="cls-3" cx="36.39" cy="41.76" r="36.39" transform="translate(-18.87 37.96) rotate(-45)"/><circle class="cls-4" cx="36.39" cy="41.75" r="36.32" transform="translate(-18.87 37.96) rotate(-45)"/><circle class="cls-5" cx="36.39" cy="41.74" r="36.25" transform="translate(-18.75 46.85) rotate(-54.22)"/><circle class="cls-6" cx="36.39" cy="41.73" r="36.18" transform="translate(-13.2 17.1) rotate(-22.5)"/><circle class="cls-7" cx="36.39" cy="41.72" r="36.12" transform="translate(-18.85 37.95) rotate(-45)"/><circle class="cls-8" cx="36.39" cy="41.71" r="36.05" transform="translate(-16.08 59.37) rotate(-67.5)"/><circle class="cls-9" cx="36.39" cy="41.7" r="35.98" transform="translate(-16.07 59.36) rotate(-67.5)"/><circle class="cls-10" cx="36.39" cy="41.69" r="35.91" transform="translate(-17.51 29.14) rotate(-35.78)"/><circle class="cls-11" cx="36.39" cy="41.68" r="35.85" transform="translate(-18.82 37.94) rotate(-45)"/><circle class="cls-12" cx="36.39" cy="41.67" r="35.78" transform="translate(-18.81 37.93) rotate(-45)"/><circle class="cls-13" cx="36.39" cy="41.66" r="35.71" transform="translate(-16.03 59.34) rotate(-67.5)"/><circle class="cls-14" cx="36.39" cy="41.65" r="35.65" transform="translate(-18.8 37.93) rotate(-45)"/><circle class="cls-15" cx="36.39" cy="41.64" r="35.58" transform="translate(-18.79 37.93) rotate(-45)"/><circle class="cls-16" cx="36.39" cy="41.63" r="35.51" transform="translate(-18.78 37.92) rotate(-45)"/><circle class="cls-17" cx="36.39" cy="41.63" r="35.44" transform="translate(-18.66 46.8) rotate(-54.22)"/><circle class="cls-18" cx="36.39" cy="41.62" r="35.38" transform="translate(-13.16 17.09) rotate(-22.5)"/><circle class="cls-19" cx="36.39" cy="41.61" r="35.31" transform="translate(-13.15 17.09) rotate(-22.5)"/><circle class="cls-20" cx="36.39" cy="41.6" r="35.24" transform="translate(-15.97 59.29) rotate(-67.5)"/><circle class="cls-21" cx="36.39" cy="41.59" r="35.18" transform="translate(-15.96 59.29) rotate(-67.5)"/><circle class="cls-22" cx="36.39" cy="41.58" r="35.11" transform="translate(-18.74 37.91) rotate(-45)"/><circle class="cls-23" cx="36.39" cy="41.57" r="35.04" transform="translate(-18.74 37.9) rotate(-45)"/><circle class="cls-24" cx="36.39" cy="41.56" r="34.97" transform="translate(-18.73 37.9) rotate(-45)"/><circle class="cls-25" cx="36.39" cy="41.55" r="34.91" transform="translate(-18.72 37.9) rotate(-45)"/><circle class="cls-26" cx="36.39" cy="41.54" r="34.84" transform="matrix(0.53, -0.85, 0.85, 0.53, -18.08, 50.65)"/><circle class="cls-27" cx="36.39" cy="41.53" r="34.77" transform="translate(-18.71 37.89) rotate(-45)"/><circle class="cls-28" cx="36.39" cy="41.52" r="34.7" transform="translate(-18.7 37.89) rotate(-45)"/><circle class="cls-29" cx="36.39" cy="41.51" r="34.64" transform="translate(-18.56 46.76) rotate(-54.22)"/><circle class="cls-30" cx="36.39" cy="41.5" r="34.57" transform="translate(-13.11 17.08) rotate(-22.5)"/><circle class="cls-31" cx="36.39" cy="41.49" r="34.5" transform="translate(-17.39 29.11) rotate(-35.78)"/><circle class="cls-32" cx="36.39" cy="41.48" r="34.44" transform="translate(-15.86 59.22) rotate(-67.5)"/><circle class="cls-33" cx="36.39" cy="41.47" r="34.37" transform="translate(-15.85 59.22) rotate(-67.5)"/><circle class="cls-34" cx="36.39" cy="41.46" r="34.3" transform="translate(-18.66 37.87) rotate(-45)"/><circle class="cls-35" cx="36.39" cy="41.45" r="34.23" transform="translate(-18 50.61) rotate(-58.28)"/><circle class="cls-36" cx="36.39" cy="41.44" r="34.17" transform="translate(-18.65 37.87) rotate(-45)"/><circle class="cls-37" cx="36.39" cy="41.43" r="34.1" transform="translate(-18.64 37.86) rotate(-45)"/><circle class="cls-38" cx="36.39" cy="41.42" r="34.03" transform="translate(-17.98 50.6) rotate(-58.28)"/><circle class="cls-39" cx="36.39" cy="41.41" r="33.97" transform="translate(-17.97 50.59) rotate(-58.28)"/><circle class="cls-40" cx="36.39" cy="41.4" r="33.9" transform="translate(-18.62 37.85) rotate(-45)"/><circle class="cls-41" cx="36.39" cy="41.39" r="33.83" transform="translate(-18.47 46.71) rotate(-54.22)"/><circle class="cls-42" cx="36.39" cy="41.38" r="33.76" transform="translate(-13.07 17.07) rotate(-22.5)"/><circle class="cls-43" cx="36.39" cy="41.37" r="33.7" transform="translate(-18.6 37.85) rotate(-45)"/><circle class="cls-44" cx="36.39" cy="41.36" r="33.63" transform="translate(-18.59 37.84) rotate(-45)"/><circle class="cls-45" cx="36.39" cy="41.35" r="33.56" transform="translate(-15.74 59.14) rotate(-67.5)"/><circle class="cls-46" cx="36.39" cy="41.34" r="33.49" transform="translate(-18.58 37.84) rotate(-45)"/><circle class="cls-47" cx="36.39" cy="41.33" r="33.43" transform="translate(-17.9 50.55) rotate(-58.28)"/><circle class="cls-48" cx="36.39" cy="41.32" r="33.36" transform="translate(-18.56 37.83) rotate(-45)"/><circle class="cls-49" cx="36.39" cy="41.31" r="33.29" transform="translate(-18.56 37.83) rotate(-45)"/><circle class="cls-50" cx="36.39" cy="41.3" r="33.23" transform="translate(-13.04 17.07) rotate(-22.5)"/><circle class="cls-51" cx="36.39" cy="41.3" r="33.16" transform="translate(-17.87 50.54) rotate(-58.28)"/><circle class="cls-52" cx="36.39" cy="41.29" r="33.09" transform="translate(-17.86 50.53) rotate(-58.28)"/><circle class="cls-53" cx="36.39" cy="41.28" r="33.02" transform="translate(-18.37 46.66) rotate(-54.22)"/><circle class="cls-54" cx="36.39" cy="41.27" r="32.96" transform="translate(-18.52 37.81) rotate(-45)"/><circle class="cls-55" cx="36.39" cy="41.26" r="32.89" transform="translate(-18.52 37.81) rotate(-45)"/><circle class="cls-56" cx="36.39" cy="41.25" r="32.82" transform="translate(-17.83 50.51) rotate(-58.28)"/><circle class="cls-57" cx="36.39" cy="41.24" r="32.75" transform="translate(-15.64 59.07) rotate(-67.5)"/><circle class="cls-58" cx="36.39" cy="41.23" r="32.69" transform="translate(-18.5 37.8) rotate(-45)"/><circle class="cls-59" cx="36.39" cy="41.22" r="32.62" transform="translate(-17.81 50.5) rotate(-58.28)"/><circle class="cls-60" cx="36.39" cy="41.21" r="32.55" transform="translate(-17.8 50.49) rotate(-58.28)"/><circle class="cls-61" cx="36.39" cy="41.2" r="32.49" transform="translate(-18.47 37.79) rotate(-45)"/><circle class="cls-62" cx="36.39" cy="41.19" r="32.42" transform="translate(-12.99 17.06) rotate(-22.5)"/><circle class="cls-63" cx="36.39" cy="41.18" r="32.35" transform="translate(-17.77 50.48) rotate(-58.28)"/><circle class="cls-64" cx="36.39" cy="41.17" r="32.28" transform="translate(-15.57 59.03) rotate(-67.5)"/><circle class="cls-65" cx="36.39" cy="41.16" r="32.22" transform="translate(-15.56 59.02) rotate(-67.5)"/><circle class="cls-66" cx="36.39" cy="41.15" r="32.15" transform="translate(-18.44 37.78) rotate(-45)"/><circle class="cls-67" cx="36.39" cy="41.14" r="32.08" transform="translate(-17.74 50.46) rotate(-58.28)"/><circle class="cls-68" cx="36.39" cy="41.13" r="32.02" transform="matrix(0.53, -0.85, 0.85, 0.53, -17.73, 50.46)"/><circle class="cls-69" cx="36.39" cy="41.12" r="31.95" transform="translate(-11.99 67.08) rotate(-76.72)"/><circle class="cls-70" cx="36.39" cy="41.11" r="31.88" transform="matrix(0.53, -0.85, 0.85, 0.53, -17.71, 50.45)"/><circle class="cls-71" cx="36.39" cy="41.1" r="31.81" transform="translate(-17.71 50.44) rotate(-58.28)"/><circle class="cls-72" cx="36.39" cy="41.09" r="31.75" transform="translate(-17.7 50.44) rotate(-58.28)"/><circle class="cls-73" cx="36.39" cy="41.08" r="31.68" transform="translate(-15.49 58.98) rotate(-67.5)"/><circle class="cls-74" cx="36.39" cy="41.07" r="31.61" transform="translate(-12.95 17.05) rotate(-22.5)"/><circle class="cls-75" cx="36.39" cy="41.06" r="31.54" transform="translate(-12.94 17.05) rotate(-22.5)"/><circle class="cls-76" cx="36.39" cy="41.05" r="31.48" transform="translate(-15.47 58.96) rotate(-67.5)"/><circle class="cls-77" cx="36.39" cy="41.04" r="31.41" transform="translate(-11.92 67.02) rotate(-76.72)"/><circle class="cls-78" cx="36.39" cy="41.03" r="31.34" transform="translate(-18.36 37.75) rotate(-45)"/><circle class="cls-79" cx="36.39" cy="41.02" r="31.28" transform="translate(-17.64 50.41) rotate(-58.28)"/><circle class="cls-80" cx="36.39" cy="41.01" r="31.21" transform="translate(-17.63 50.4) rotate(-58.28)"/><circle class="cls-81" cx="36.39" cy="41" r="31.14" transform="translate(-17.62 50.4) rotate(-58.28)"/><circle class="cls-82" cx="36.39" cy="40.99" r="31.07" transform="translate(-11.87 66.99) rotate(-76.72)"/><circle class="cls-83" cx="36.39" cy="40.98" r="31.01" transform="translate(-17.61 50.39) rotate(-58.28)"/><circle class="cls-84" cx="36.39" cy="40.97" r="30.94" transform="translate(-17.6 50.38) rotate(-58.28)"/><circle class="cls-85" cx="36.39" cy="40.97" r="30.87" transform="matrix(0.38, -0.92, 0.92, 0.38, -15.39, 58.9)"/><circle class="cls-86" cx="36.39" cy="40.96" r="30.81" transform="matrix(0.92, -0.38, 0.38, 0.92, -12.9, 17.04)"/><circle class="cls-87" cx="36.39" cy="40.95" r="30.74" transform="translate(-12.9 17.04) rotate(-22.5)"/><circle class="cls-88" cx="36.39" cy="40.94" r="30.67" transform="translate(-15.36 58.89) rotate(-67.5)"/><circle class="cls-89" cx="36.39" cy="40.93" r="30.6" transform="translate(-11.81 66.94) rotate(-76.72)"/><circle class="cls-90" cx="36.39" cy="40.92" r="30.54" transform="translate(-15.34 58.87) rotate(-67.5)"/><circle class="cls-91" cx="36.39" cy="40.91" r="30.47" transform="translate(-17.54 50.35) rotate(-58.28)"/><circle class="cls-92" cx="36.39" cy="40.9" r="30.4" transform="translate(-17.53 50.35) rotate(-58.28)"/><circle class="cls-93" cx="36.39" cy="40.89" r="30.33" transform="translate(-17.52 50.34) rotate(-58.28)"/><circle class="cls-94" cx="36.39" cy="40.88" r="30.27" transform="translate(-11.76 66.9) rotate(-76.72)"/><circle class="cls-95" cx="36.39" cy="40.87" r="30.2" transform="translate(-11.75 66.89) rotate(-76.72)"/><circle class="cls-96" cx="36.39" cy="40.86" r="30.13" transform="matrix(0.53, -0.85, 0.85, 0.53, -17.5, 50.33)"/><circle class="cls-97" cx="36.39" cy="40.85" r="30.07" transform="translate(-15.28 58.83) rotate(-67.5)"/><circle class="cls-98" cx="36.39" cy="40.84" r="30" transform="translate(-15.27 58.83) rotate(-67.5)"/><circle class="cls-99" cx="36.39" cy="40.83" r="29.93" transform="translate(-12.86 17.03) rotate(-22.5)"/><circle class="cls-100" cx="36.39" cy="40.82" r="29.86" transform="translate(-17.47 50.31) rotate(-58.28)"/><circle class="cls-101" cx="36.39" cy="40.81" r="29.8" transform="translate(-11.69 66.85) rotate(-76.72)"/><circle class="cls-102" cx="36.39" cy="40.8" r="29.73" transform="translate(-11.68 66.84) rotate(-76.72)"/><circle class="cls-103" cx="36.39" cy="40.79" r="29.66" transform="translate(-11.67 66.83) rotate(-76.72)"/><circle class="cls-104" cx="36.39" cy="40.78" r="29.6" transform="translate(-17.43 50.29) rotate(-58.28)"/><circle class="cls-105" cx="36.39" cy="40.77" r="29.53" transform="translate(-17.43 50.29) rotate(-58.28)"/><circle class="cls-106" cx="36.39" cy="40.76" r="29.46" transform="translate(-15.2 58.78) rotate(-67.5)"/><circle class="cls-107" cx="36.39" cy="40.75" r="29.39" transform="translate(-11.64 66.8) rotate(-76.72)"/><circle class="cls-108" cx="36.39" cy="40.74" r="29.33" transform="translate(-11.63 66.79) rotate(-76.72)"/><circle class="cls-109" cx="36.39" cy="40.73" r="29.26" transform="translate(-15.17 58.76) rotate(-67.5)"/><circle class="cls-110" cx="36.39" cy="40.72" r="29.19" transform="translate(-15.16 58.75) rotate(-67.5)"/><circle class="cls-111" cx="36.39" cy="40.71" r="29.12" transform="translate(-15.15 58.75) rotate(-67.5)"/><circle class="cls-112" cx="36.39" cy="40.7" r="29.06" transform="translate(-11.59 66.76) rotate(-76.72)"/><circle class="cls-113" cx="36.39" cy="40.69" r="28.99" transform="translate(-11.58 66.76) rotate(-76.72)"/><circle class="cls-114" cx="36.39" cy="40.68" r="28.92" transform="translate(-11.57 66.75) rotate(-76.72)"/><circle class="cls-115" cx="36.39" cy="40.67" r="28.86" transform="translate(-11.56 66.74) rotate(-76.72)"/><circle class="cls-116" cx="36.39" cy="40.66" r="28.79" transform="translate(-11.55 66.73) rotate(-76.72)"/><circle class="cls-117" cx="36.39" cy="40.65" r="28.72" transform="translate(-17.33 50.23) rotate(-58.28)"/><circle class="cls-118" cx="36.39" cy="40.64" r="28.65" transform="translate(-15.09 58.71) rotate(-67.5)"/><circle class="cls-119" cx="36.39" cy="40.63" r="28.59" transform="translate(-11.52 66.71) rotate(-76.72)"/><circle class="cls-120" cx="36.39" cy="40.63" r="28.52" transform="translate(-11.51 66.7) rotate(-76.72)"/><circle class="cls-121" cx="36.39" cy="40.62" r="28.45" transform="matrix(0.38, -0.92, 0.92, 0.38, -15.06, 58.69)"/><circle class="cls-122" cx="36.39" cy="40.61" r="28.39" transform="translate(-15.05 58.68) rotate(-67.5)"/><circle class="cls-123" cx="36.39" cy="40.6" r="28.32" transform="translate(-15.04 58.68) rotate(-67.5)"/><circle class="cls-124" cx="36.39" cy="40.59" r="28.25" transform="translate(-11.48 66.67) rotate(-76.72)"/><circle class="cls-125" cx="36.39" cy="40.58" r="28.18" transform="translate(-11.47 66.67) rotate(-76.72)"/><circle class="cls-126" cx="36.39" cy="40.57" r="28.12" transform="translate(-11.46 66.66) rotate(-76.72)"/><circle class="cls-127" cx="36.39" cy="40.56" r="28.05" transform="translate(-11.45 66.65) rotate(-76.72)"/><circle class="cls-128" cx="36.39" cy="40.55" r="27.98" transform="translate(-11.44 66.64) rotate(-76.72)"/><circle class="cls-129" cx="36.39" cy="40.54" r="27.91" transform="translate(-11.43 66.64) rotate(-76.72)"/><circle class="cls-130" cx="36.39" cy="40.53" r="27.85" transform="translate(-14.98 58.63) rotate(-67.5)"/><circle class="cls-131" cx="36.39" cy="40.52" r="27.78" transform="translate(-12.74 17.01) rotate(-22.5)"/><circle class="cls-132" cx="36.39" cy="40.51" r="27.71" transform="translate(-11.4 66.61) rotate(-76.72)"/><circle class="cls-133" cx="36.39" cy="40.5" r="27.65" transform="translate(-9.42 69.93) rotate(-80.78)"/><circle class="cls-134" cx="36.39" cy="40.49" r="27.58" transform="translate(-11.38 66.6) rotate(-76.72)"/><circle class="cls-135" cx="36.39" cy="40.48" r="27.51" transform="translate(-14.94 58.6) rotate(-67.5)"/><circle class="cls-136" cx="36.39" cy="40.47" r="27.44" transform="translate(-11.36 66.58) rotate(-76.72)"/><circle class="cls-137" cx="36.39" cy="40.46" r="27.38" transform="translate(-11.35 66.58) rotate(-76.72)"/><circle class="cls-138" cx="36.39" cy="40.45" r="27.31" transform="translate(-7.45 72.67) rotate(-84.35)"/><circle class="cls-139" cx="36.39" cy="40.44" r="27.24" transform="translate(-11.33 66.56) rotate(-76.72)"/><circle class="cls-140" cx="36.39" cy="40.43" r="27.18" transform="translate(-11.32 66.55) rotate(-76.72)"/><circle class="cls-141" cx="36.39" cy="40.42" r="27.11" transform="translate(-11.31 66.55) rotate(-76.72)"/><circle class="cls-142" cx="36.39" cy="40.41" r="27.04" transform="translate(-9.33 69.85) rotate(-80.78)"/><circle class="cls-143" cx="36.39" cy="40.4" r="26.97" transform="translate(-12.69 17) rotate(-22.5)"/><circle class="cls-144" cx="36.39" cy="40.39" r="26.91" transform="matrix(0.23, -0.97, 0.97, 0.23, -11.29, 66.52)"/><circle class="cls-145" cx="36.39" cy="40.38" r="26.84" transform="translate(-9.3 69.83) rotate(-80.78)"/><circle class="cls-146" cx="36.39" cy="40.37" r="26.77" transform="translate(-7.38 72.6) rotate(-84.35)"/><circle class="cls-147" cx="36.39" cy="40.36" r="26.7" transform="translate(-14.83 58.53) rotate(-67.5)"/><circle class="cls-148" cx="36.39" cy="40.35" r="26.64" transform="translate(-11.25 66.49) rotate(-76.72)"/><circle class="cls-149" cx="36.39" cy="40.34" r="26.57" transform="translate(-11.24 66.49) rotate(-76.72)"/><circle class="cls-150" cx="36.39" cy="40.33" r="26.5" transform="translate(-11.23 66.48) rotate(-76.72)"/><circle class="cls-151" cx="36.39" cy="40.32" r="26.44" transform="translate(-11.22 66.47) rotate(-76.72)"/><circle class="cls-152" cx="36.39" cy="40.31" r="26.37" transform="translate(-11.21 66.46) rotate(-76.72)"/><circle class="cls-153" cx="36.39" cy="40.3" r="26.3" transform="translate(-11.2 66.46) rotate(-76.72)"/><circle class="cls-154" cx="36.39" cy="40.3" r="26.23" transform="translate(-9.22 69.76) rotate(-80.78)"/><path class="cls-155" d="M36.39,66.45A26.17,26.17,0,1,1,62.55,40.29,26.16,26.16,0,0,1,36.39,66.45Z"/><path class="cls-156" d="M36.39,66.38a26.1,26.1,0,1,1,26.09-26.1A26.1,26.1,0,0,1,36.39,66.38Z"/><circle class="cls-157" cx="36.39" cy="40.27" r="26.03" transform="translate(-7.27 72.51) rotate(-84.35)"/><circle class="cls-158" cx="36.39" cy="40.26" r="25.97" transform="translate(-7.26 72.5) rotate(-84.35)"/><circle class="cls-159" cx="36.39" cy="40.25" r="25.9"/><circle class="cls-160" cx="36.39" cy="40.24" r="25.83" transform="translate(-11.13 66.4) rotate(-76.72)"/><circle class="cls-161" cx="36.39" cy="40.23" r="25.76" transform="translate(-11.13 66.4) rotate(-76.72)"/><circle class="cls-162" cx="36.39" cy="40.22" r="25.7" transform="translate(-11.12 66.39) rotate(-76.72)"/><circle class="cls-163" cx="36.39" cy="40.21" r="25.63"/><circle class="cls-164" cx="36.39" cy="40.2" r="25.56" transform="translate(-11.1 66.37) rotate(-76.72)"/><circle class="cls-165" cx="36.39" cy="40.19" r="25.49" transform="translate(-11.09 66.37) rotate(-76.72)"/><path class="cls-166" d="M36.39,65.61A25.43,25.43,0,1,1,61.81,40.18,25.43,25.43,0,0,1,36.39,65.61Z"/><path class="cls-167" d="M36.39,65.53A25.36,25.36,0,1,1,61.75,40.17,25.36,25.36,0,0,1,36.39,65.53Z"/><path class="cls-168" d="M36.39,65.45A25.29,25.29,0,1,1,61.68,40.16,25.3,25.3,0,0,1,36.39,65.45Z"/><circle class="cls-169" cx="36.39" cy="40.15" r="25.23" transform="translate(-7.15 72.4) rotate(-84.35)"/><circle class="cls-170" cx="36.39" cy="40.14" r="25.16" transform="translate(-7.14 72.39) rotate(-84.35)"/><circle class="cls-171" cx="36.39" cy="40.13" r="25.09"/><circle class="cls-172" cx="36.39" cy="40.12" r="25.02"/><circle class="cls-173" cx="36.39" cy="40.11" r="24.96" transform="translate(-11.01 66.31) rotate(-76.72)"/><circle class="cls-174" cx="36.39" cy="40.1" r="24.89" transform="translate(-11 66.3) rotate(-76.72)"/><path class="cls-175" d="M36.39,64.91A24.82,24.82,0,1,1,61.21,40.09,24.83,24.83,0,0,1,36.39,64.91Z"/><circle class="cls-176" cx="36.39" cy="40.08" r="24.76"/><circle class="cls-177" cx="36.39" cy="40.07" r="24.69" transform="translate(-10.97 66.28) rotate(-76.72)"/><path class="cls-178" d="M36.39,64.68A24.62,24.62,0,1,1,61,40.06,24.63,24.63,0,0,1,36.39,64.68Z"/><path class="cls-179" d="M36.39,64.61A24.56,24.56,0,1,1,60.94,40.05,24.56,24.56,0,0,1,36.39,64.61Z"/><circle class="cls-180" cx="36.39" cy="40.04" r="24.49"/><circle class="cls-181" cx="36.39" cy="40.03" r="24.42" transform="translate(-10.94 66.25) rotate(-76.72)"/><circle class="cls-182" cx="36.39" cy="40.02" r="24.35" transform="translate(-7.03 72.29) rotate(-84.35)"/><circle class="cls-183" cx="36.39" cy="40.01" r="24.28"/><circle class="cls-184" cx="36.39" cy="40" r="24.22"/><circle class="cls-185" cx="36.39" cy="39.99" r="24.15"/><circle class="cls-186" cx="36.39" cy="39.98" r="24.08" transform="translate(-10.89 66.21) rotate(-76.72)"/><path class="cls-187" d="M36.39,64a24,24,0,1,1,24-24A24,24,0,0,1,36.39,64Z"/><circle class="cls-188" cx="36.39" cy="39.97" r="23.95"/><circle class="cls-189" cx="36.39" cy="39.96" r="23.88"/><path class="cls-190" d="M36.39,63.76A23.82,23.82,0,1,1,60.2,40,23.81,23.81,0,0,1,36.39,63.76Z"/><path class="cls-191" d="M36.39,63.68A23.75,23.75,0,1,1,60.13,39.94,23.74,23.74,0,0,1,36.39,63.68Z"/><circle class="cls-192" cx="36.39" cy="39.93" r="23.68"/><circle class="cls-193" cx="36.39" cy="39.92" r="23.61"/><circle class="cls-194" cx="36.39" cy="39.91" r="23.55" transform="translate(-6.91 72.18) rotate(-84.35)"/><circle class="cls-195" cx="36.39" cy="39.9" r="23.48"/><circle class="cls-196" cx="36.39" cy="39.89" r="23.41"/><circle class="cls-197" cx="36.39" cy="39.88" r="23.34"/><circle class="cls-198" cx="36.39" cy="39.87" r="23.28"/><path class="cls-199" d="M36.39,63.07a23.21,23.21,0,1,1,23.2-23.21A23.21,23.21,0,0,1,36.39,63.07Z"/><path class="cls-200" d="M36.39,63A23.14,23.14,0,1,1,59.53,39.85,23.14,23.14,0,0,1,36.39,63Z"/><circle class="cls-201" cx="36.39" cy="39.84" r="23.07"/><path class="cls-202" d="M36.39,62.84a23,23,0,1,1,23-23A23,23,0,0,1,36.39,62.84Z"/><circle class="cls-203" cx="36.39" cy="39.82" r="22.94" transform="translate(-6.83 72.1) rotate(-84.35)"/><circle class="cls-204" cx="36.39" cy="39.81" r="22.87"/><circle class="cls-205" cx="36.39" cy="39.8" r="22.81"/><circle class="cls-206" cx="36.39" cy="39.79" r="22.74"/><circle class="cls-207" cx="36.39" cy="39.78" r="22.67" transform="matrix(0.1, -1, 1, 0.1, -6.79, 72.07)"/><circle class="cls-208" cx="36.39" cy="39.77" r="22.6"/><circle class="cls-209" cx="36.39" cy="39.76" r="22.54"/></g><circle class="cls-210" cx="36.39" cy="31.49" r="31.49" transform="translate(-2.62 59.67) rotate(-76.72)"/><path class="cls-211" d="M44.89,35.07c.14-1.51.52-5.67-1.78-8.51a7,7,0,0,0-3.85-2.41l0,.09a3.58,3.58,0,0,1-.34.52,3.18,3.18,0,0,1-2.36,1.31H36.3A3.16,3.16,0,0,1,34,24.76a4.32,4.32,0,0,1-.33-.5,7.57,7.57,0,0,0-3.36,2.13c-2.57,2.85-2.58,7.17-2.52,8.64s.48,1.46,1.23,1.45a.69.69,0,0,0,.51-.33h1.12c-.07.21-.14.55-.19.77a22,22,0,0,0-.55,4.26c-.07.94.14,2.83,1,2.83s1.12-.6,1.22-1.16a19,19,0,0,1,.59-3.54,11.08,11.08,0,0,1,1.51-3H38.7a10.68,10.68,0,0,1,1.56,3,15.67,15.67,0,0,1,.48,3.61c.07.57.32,1.09,1.11,1.09s1.08-1.48,1.13-2.56a13,13,0,0,0-.47-4.34c-.07-.28-.16-.68-.26-1h.86a.52.52,0,0,0,.42.31C44.23,36.53,44.78,36.37,44.89,35.07Zm-12-4A40.8,40.8,0,0,1,31,35.17h-1.1a7.52,7.52,0,0,1,2-5.68,3.8,3.8,0,0,1,.75-.65A4.46,4.46,0,0,1,32.85,31.05Zm3.27,4.11h-1a2.34,2.34,0,0,1,1.25-.64,2.36,2.36,0,0,1,1.27.64Zm6.58,0h-.88A36.88,36.88,0,0,1,40,31.05a4.93,4.93,0,0,1,.24-2.45,3.66,3.66,0,0,1,1.21,1A6.5,6.5,0,0,1,42.7,35.17Z"/><path class="cls-211" d="M36.34,25.48h.14C37.9,25.43,39,23.9,39,22.24a2.74,2.74,0,0,0-2.59-2.91h-.07a2.74,2.74,0,0,0-2.59,2.91C33.79,23.9,34.92,25.42,36.34,25.48Z"/><path class="cls-211" d="M52.19,36.71a263.57,263.57,0,0,0-31.55,0,.61.61,0,0,1-.66-.57h0a.62.62,0,0,1,.58-.65,262.1,262.1,0,0,1,31.71,0,.62.62,0,0,1,.58.65h0A.62.62,0,0,1,52.19,36.71Z"/><path class="cls-211" d="M22.41,40.3h0a1.23,1.23,0,0,1-1.31-1.16L20.74,33a1.24,1.24,0,0,1,1.2-1.3h0a1.24,1.24,0,0,1,1.33,1.16q.15,3.06.31,6.13A1.24,1.24,0,0,1,22.41,40.3Z"/><path class="cls-211" d="M24.45,40.2h0A1.25,1.25,0,0,1,23.15,39c-.1-2-.21-4.09-.31-6.13a1.25,1.25,0,0,1,1.21-1.29h0a1.25,1.25,0,0,1,1.32,1.18c.09,2,.17,4.08.26,6.12A1.24,1.24,0,0,1,24.45,40.2Z"/><path class="cls-211" d="M48.38,40.2h0a1.25,1.25,0,0,1-1.18-1.29c.08-2,.17-4.08.25-6.12a1.26,1.26,0,0,1,1.33-1.18h0A1.24,1.24,0,0,1,50,32.9c-.11,2-.21,4.09-.32,6.13A1.23,1.23,0,0,1,48.38,40.2Z"/><path class="cls-211" d="M50.42,40.3h0A1.24,1.24,0,0,1,49.25,39q.15-3.07.31-6.13a1.24,1.24,0,0,1,1.33-1.16h0a1.25,1.25,0,0,1,1.2,1.3l-.36,6.12A1.24,1.24,0,0,1,50.42,40.3Z"/></g></g></g></svg>