<svg xmlns="http://www.w3.org/2000/svg" xmlns:xlink="http://www.w3.org/1999/xlink" viewBox="0 0 72.77 78.15"><defs><style>.cls-1{isolation:isolate;}.cls-2{mix-blend-mode:multiply;}.cls-3{fill:#fff;opacity:0;}.cls-4{fill:#fefefe;opacity:0;}.cls-5{fill:#fdfdfd;opacity:0.01;}.cls-6{fill:#fcfcfd;opacity:0.01;}.cls-7{fill:#fbfbfc;opacity:0.01;}.cls-8{fill:#fafafb;opacity:0.02;}.cls-9{fill:#f9fafa;opacity:0.02;}.cls-10{fill:#f8f9f9;opacity:0.02;}.cls-11{fill:#f7f8f9;opacity:0.03;}.cls-12{fill:#f6f7f8;opacity:0.03;}.cls-13{fill:#f5f6f7;opacity:0.03;}.cls-14{fill:#f4f5f6;opacity:0.04;}.cls-15{fill:#f3f4f5;opacity:0.04;}.cls-16{fill:#f2f3f5;opacity:0.04;}.cls-17{fill:#f1f2f4;opacity:0.05;}.cls-18{fill:#f0f1f3;opacity:0.05;}.cls-19{fill:#eff1f2;opacity:0.05;}.cls-20{fill:#eef0f1;opacity:0.06;}.cls-21{fill:#edeff0;opacity:0.06;}.cls-22{fill:#eceef0;opacity:0.06;}.cls-23{fill:#ebedef;opacity:0.07;}.cls-24{fill:#eaecee;opacity:0.07;}.cls-25{fill:#e9ebed;opacity:0.07;}.cls-26{fill:#e8eaec;opacity:0.08;}.cls-27{fill:#e7e9ec;opacity:0.08;}.cls-28{fill:#e6e8eb;opacity:0.08;}.cls-29{fill:#e5e8ea;opacity:0.09;}.cls-30{fill:#e4e7e9;opacity:0.09;}.cls-31{fill:#e3e6e8;opacity:0.1;}.cls-32{fill:#e2e5e8;opacity:0.1;}.cls-33{fill:#e1e4e7;opacity:0.1;}.cls-34{fill:#e0e3e6;opacity:0.11;}.cls-35{fill:#dfe2e5;opacity:0.11;}.cls-36{fill:#dee1e4;opacity:0.11;}.cls-37{fill:#dde0e4;opacity:0.12;}.cls-38{fill:#dcdfe3;opacity:0.12;}.cls-39{fill:#dbdee2;opacity:0.12;}.cls-40{fill:#dadee1;opacity:0.13;}.cls-41{fill:#d9dde0;opacity:0.13;}.cls-42{fill:#d8dce0;opacity:0.13;}.cls-43{fill:#d7dbdf;opacity:0.14;}.cls-44{fill:#d6dade;opacity:0.14;}.cls-45{fill:#d5d9dd;opacity:0.14;}.cls-46{fill:#d4d8dc;opacity:0.15;}.cls-47{fill:#d3d7dc;opacity:0.15;}.cls-48{fill:#d2d6db;opacity:0.15;}.cls-49{fill:#d1d5da;opacity:0.16;}.cls-50{fill:#d0d5d9;opacity:0.16;}.cls-51{fill:#cfd4d8;opacity:0.16;}.cls-52{fill:#ced3d8;opacity:0.17;}.cls-53{fill:#cdd2d7;opacity:0.17;}.cls-54{fill:#ccd1d6;opacity:0.17;}.cls-55{fill:#cbd0d5;opacity:0.18;}.cls-56{fill:#cacfd4;opacity:0.18;}.cls-57{fill:#c9ced3;opacity:0.18;}.cls-58{fill:#c8cdd3;opacity:0.19;}.cls-59{fill:#c7ccd2;opacity:0.19;}.cls-60{fill:#c6ccd1;opacity:0.19;}.cls-61{fill:#c5cbd0;opacity:0.2;}.cls-62{fill:#c4cacf;opacity:0.2;}.cls-63{fill:#c3c9cf;opacity:0.2;}.cls-64{fill:#c2c8ce;opacity:0.21;}.cls-65{fill:#c1c7cd;opacity:0.21;}.cls-66{fill:#c0c6cc;opacity:0.21;}.cls-67{fill:#bfc5cb;opacity:0.22;}.cls-68{fill:#bec4cb;opacity:0.22;}.cls-69{fill:#bdc3ca;opacity:0.22;}.cls-70{fill:#bcc3c9;opacity:0.23;}.cls-71{fill:#bbc2c8;opacity:0.23;}.cls-72{fill:#bac1c7;opacity:0.23;}.cls-73{fill:#b9c0c7;opacity:0.24;}.cls-74{fill:#b8bfc6;opacity:0.24;}.cls-75{fill:#b7bec5;opacity:0.24;}.cls-76{fill:#b6bdc4;opacity:0.25;}.cls-77{fill:#b5bcc3;opacity:0.25;}.cls-78{fill:#b4bbc3;opacity:0.25;}.cls-79{fill:#b3bac2;opacity:0.26;}.cls-80{fill:#b2b9c1;opacity:0.26;}.cls-81{fill:#b1b9c0;opacity:0.27;}.cls-82{fill:#b0b8bf;opacity:0.27;}.cls-83{fill:#afb7bf;opacity:0.27;}.cls-84{fill:#aeb6be;opacity:0.28;}.cls-85{fill:#adb5bd;opacity:0.28;}.cls-86{fill:#acb4bc;opacity:0.28;}.cls-87{fill:#abb3bb;opacity:0.29;}.cls-88{fill:#aab2bb;opacity:0.29;}.cls-89{fill:#a9b1ba;opacity:0.29;}.cls-90{fill:#a8b0b9;opacity:0.3;}.cls-91{fill:#a7b0b8;opacity:0.3;}.cls-92{fill:#a6afb7;opacity:0.3;}.cls-93{fill:#a5aeb6;opacity:0.31;}.cls-94{fill:#a4adb6;opacity:0.31;}.cls-95{fill:#a3acb5;opacity:0.31;}.cls-96{fill:#a2abb4;opacity:0.32;}.cls-97{fill:#a1aab3;opacity:0.32;}.cls-98{fill:#a0a9b2;opacity:0.32;}.cls-99{fill:#9fa8b2;opacity:0.33;}.cls-100{fill:#9ea7b1;opacity:0.33;}.cls-101{fill:#9da7b0;opacity:0.33;}.cls-102{fill:#9ca6af;opacity:0.34;}.cls-103{fill:#9ba5ae;opacity:0.34;}.cls-104{fill:#9aa4ae;opacity:0.34;}.cls-105{fill:#99a3ad;opacity:0.35;}.cls-106{fill:#98a2ac;opacity:0.35;}.cls-107{fill:#97a1ab;opacity:0.35;}.cls-108{fill:#96a0aa;opacity:0.36;}.cls-109{fill:#959faa;opacity:0.36;}.cls-110{fill:#949ea9;opacity:0.36;}.cls-111{fill:#939da8;opacity:0.37;}.cls-112{fill:#929da7;opacity:0.37;}.cls-113{fill:#919ca6;opacity:0.37;}.cls-114{fill:#909ba6;opacity:0.38;}.cls-115{fill:#8f9aa5;opacity:0.38;}.cls-116{fill:#8e99a4;opacity:0.38;}.cls-117{fill:#8d98a3;opacity:0.39;}.cls-118{fill:#8c97a2;opacity:0.39;}.cls-119{fill:#8b96a2;opacity:0.39;}.cls-120{fill:#8a95a1;opacity:0.4;}.cls-121{fill:#8994a0;opacity:0.4;}.cls-122{fill:#88949f;opacity:0.4;}.cls-123{fill:#87939e;opacity:0.41;}.cls-124{fill:#86929d;opacity:0.41;}.cls-125{fill:#85919d;opacity:0.41;}.cls-126{fill:#84909c;opacity:0.42;}.cls-127{fill:#838f9b;opacity:0.42;}.cls-128{fill:#828e9a;opacity:0.42;}.cls-129{fill:#818d99;opacity:0.43;}.cls-130{fill:#808c99;opacity:0.43;}.cls-131{fill:#7f8b98;opacity:0.43;}.cls-132{fill:#7e8b97;opacity:0.44;}.cls-133{fill:#7d8a96;opacity:0.44;}.cls-134{fill:#7c8995;opacity:0.45;}.cls-135{fill:#7b8895;opacity:0.45;}.cls-136{fill:#7a8794;opacity:0.45;}.cls-137{fill:#798693;opacity:0.46;}.cls-138{fill:#788592;opacity:0.46;}.cls-139{fill:#778491;opacity:0.46;}.cls-140{fill:#768391;opacity:0.47;}.cls-141{fill:#758290;opacity:0.47;}.cls-142{fill:#74818f;opacity:0.47;}.cls-143{fill:#73818e;opacity:0.48;}.cls-144{fill:#72808d;opacity:0.48;}.cls-145{fill:#717f8d;opacity:0.48;}.cls-146{fill:#707e8c;opacity:0.49;}.cls-147{fill:#6f7d8b;opacity:0.49;}.cls-148{fill:#6e7c8a;opacity:0.49;}.cls-149{fill:#6d7b89;opacity:0.5;}.cls-150{fill:#6c7a89;opacity:0.5;}.cls-151{fill:#6b7988;opacity:0.5;}.cls-152{fill:#6a7887;opacity:0.51;}.cls-153{fill:#697886;opacity:0.51;}.cls-154{fill:#687785;opacity:0.51;}.cls-155{fill:#677685;opacity:0.52;}.cls-156{fill:#667584;opacity:0.52;}.cls-157{fill:#657483;opacity:0.52;}.cls-158{fill:#647382;opacity:0.53;}.cls-159{fill:#637281;opacity:0.53;}.cls-160{fill:#627180;opacity:0.53;}.cls-161{fill:#617080;opacity:0.54;}.cls-162{fill:#606f7f;opacity:0.54;}.cls-163{fill:#5f6f7e;opacity:0.54;}.cls-164{fill:#5e6e7d;opacity:0.55;}.cls-165{fill:#5d6d7c;opacity:0.55;}.cls-166{fill:#5c6c7c;opacity:0.55;}.cls-167{fill:#5b6b7b;opacity:0.56;}.cls-168{fill:#5a6a7a;opacity:0.56;}.cls-169{fill:#596979;opacity:0.56;}.cls-170{fill:#586878;opacity:0.57;}.cls-171{fill:#576778;opacity:0.57;}.cls-172{fill:#566677;opacity:0.57;}.cls-173{fill:#556676;opacity:0.58;}.cls-174{fill:#546575;opacity:0.58;}.cls-175{fill:#536474;opacity:0.58;}.cls-176{fill:#526374;opacity:0.59;}.cls-177{fill:#516273;opacity:0.59;}.cls-178{fill:#506172;opacity:0.59;}.cls-179{fill:#4f6071;opacity:0.6;}.cls-180{fill:#4e5f70;opacity:0.6;}.cls-181{fill:#4d5e70;opacity:0.6;}.cls-182{fill:#4c5d6f;opacity:0.61;}.cls-183{fill:#4b5c6e;opacity:0.61;}.cls-184{fill:#4a5c6d;opacity:0.62;}.cls-185{fill:#495b6c;opacity:0.62;}.cls-186{fill:#485a6c;opacity:0.62;}.cls-187{fill:#47596b;opacity:0.63;}.cls-188{fill:#46586a;opacity:0.63;}.cls-189{fill:#455769;opacity:0.63;}.cls-190{fill:#445668;opacity:0.64;}.cls-191{fill:#435568;opacity:0.64;}.cls-192{fill:#425467;opacity:0.64;}.cls-193{fill:#415366;opacity:0.65;}.cls-194{fill:#405365;opacity:0.65;}.cls-195{fill:#3f5264;opacity:0.65;}.cls-196{fill:#3e5163;opacity:0.66;}.cls-197{fill:#3d5063;opacity:0.66;}.cls-198{fill:#3c4f62;opacity:0.66;}.cls-199{fill:#3b4e61;opacity:0.67;}.cls-200{fill:#3a4d60;opacity:0.67;}.cls-201{fill:#394c5f;opacity:0.67;}.cls-202{fill:#384b5f;opacity:0.68;}.cls-203{fill:#374a5e;opacity:0.68;}.cls-204{fill:#364a5d;opacity:0.68;}.cls-205{fill:#35495c;opacity:0.69;}.cls-206{fill:#34485b;opacity:0.69;}.cls-207{fill:#33475b;opacity:0.69;}.cls-208{fill:#32465a;opacity:0.7;}.cls-209,.cls-211{fill:#314559;}.cls-209{opacity:0.7;}.cls-210{fill:url(#linear-gradient);}</style><linearGradient id="linear-gradient" x1="6672.14" y1="-573.63" x2="6735.12" y2="-573.63" gradientTransform="translate(2071.78 -6381.38) rotate(112.5)" gradientUnits="userSpaceOnUse"><stop offset="0" stop-color="#fff"/><stop offset="0.28" stop-color="#fafbfc"/><stop offset="0.6" stop-color="#edeff2"/><stop offset="0.93" stop-color="#d7dbe2"/><stop offset="1" stop-color="#d1d5de"/></linearGradient></defs><g class="cls-1"><g id="Layer_2" data-name="Layer 2"><g id="Layer_1-2" data-name="Layer 1"><g class="cls-2"><circle class="cls-3" cx="36.39" cy="41.76" r="36.39" transform="translate(-13.21 17.1) rotate(-22.5)"/><circle class="cls-4" cx="36.39" cy="41.75" r="36.32" transform="translate(-13.21 17.1) rotate(-22.5)"/><circle class="cls-5" cx="36.39" cy="41.74" r="36.25" transform="translate(-13.2 17.1) rotate(-22.5)"/><circle class="cls-6" cx="36.39" cy="41.73" r="36.18" transform="translate(-13.2 17.1) rotate(-22.5)"/><circle class="cls-7" cx="36.39" cy="41.72" r="36.12" transform="translate(-13.2 17.1) rotate(-22.5)"/><circle class="cls-8" cx="36.39" cy="41.71" r="36.05" transform="translate(-13.19 17.1) rotate(-22.5)"/><circle class="cls-9" cx="36.39" cy="41.7" r="35.98" transform="translate(-13.19 17.1) rotate(-22.5)"/><circle class="cls-10" cx="36.39" cy="41.69" r="35.91" transform="translate(-13.19 17.1) rotate(-22.5)"/><circle class="cls-11" cx="36.39" cy="41.68" r="35.85" transform="translate(-13.18 17.1) rotate(-22.5)"/><circle class="cls-12" cx="36.39" cy="41.67" r="35.78" transform="translate(-13.18 17.1) rotate(-22.5)"/><circle class="cls-13" cx="36.39" cy="41.66" r="35.71" transform="translate(-13.17 17.1) rotate(-22.5)"/><circle class="cls-14" cx="36.39" cy="41.65" r="35.65" transform="translate(-13.17 17.09) rotate(-22.5)"/><circle class="cls-15" cx="36.39" cy="41.64" r="35.58" transform="translate(-13.17 17.09) rotate(-22.5)"/><circle class="cls-16" cx="36.39" cy="41.63" r="35.51" transform="translate(-13.16 17.09) rotate(-22.5)"/><circle class="cls-17" cx="36.39" cy="41.63" r="35.44" transform="translate(-13.16 17.09) rotate(-22.5)"/><circle class="cls-18" cx="36.39" cy="41.62" r="35.38" transform="translate(-13.16 17.09) rotate(-22.5)"/><circle class="cls-19" cx="36.39" cy="41.61" r="35.31" transform="translate(-13.15 17.09) rotate(-22.5)"/><circle class="cls-20" cx="36.39" cy="41.6" r="35.24" transform="translate(-13.15 17.09) rotate(-22.5)"/><circle class="cls-21" cx="36.39" cy="41.59" r="35.18" transform="translate(-13.14 17.09) rotate(-22.5)"/><circle class="cls-22" cx="36.39" cy="41.58" r="35.11" transform="translate(-13.14 17.09) rotate(-22.5)"/><circle class="cls-23" cx="36.39" cy="41.57" r="35.04" transform="translate(-13.14 17.09) rotate(-22.5)"/><circle class="cls-24" cx="36.39" cy="41.56" r="34.97" transform="translate(-13.13 17.09) rotate(-22.5)"/><circle class="cls-25" cx="36.39" cy="41.55" r="34.91" transform="translate(-13.13 17.09) rotate(-22.5)"/><circle class="cls-26" cx="36.39" cy="41.54" r="34.84" transform="translate(-13.13 17.09) rotate(-22.5)"/><circle class="cls-27" cx="36.39" cy="41.53" r="34.77" transform="translate(-13.12 17.09) rotate(-22.5)"/><circle class="cls-28" cx="36.39" cy="41.52" r="34.7" transform="translate(-13.12 17.08) rotate(-22.5)"/><circle class="cls-29" cx="36.39" cy="41.51" r="34.64" transform="translate(-13.12 17.08) rotate(-22.5)"/><circle class="cls-30" cx="36.39" cy="41.5" r="34.57" transform="translate(-13.11 17.08) rotate(-22.5)"/><circle class="cls-31" cx="36.39" cy="41.49" r="34.5" transform="translate(-13.11 17.08) rotate(-22.5)"/><circle class="cls-32" cx="36.39" cy="41.48" r="34.44" transform="translate(-13.1 17.08) rotate(-22.5)"/><circle class="cls-33" cx="36.39" cy="41.47" r="34.37" transform="translate(-13.1 17.08) rotate(-22.5)"/><circle class="cls-34" cx="36.39" cy="41.46" r="34.3" transform="translate(-13.1 17.08) rotate(-22.5)"/><circle class="cls-35" cx="36.39" cy="41.45" r="34.23" transform="translate(-13.09 17.08) rotate(-22.5)"/><circle class="cls-36" cx="36.39" cy="41.44" r="34.17" transform="translate(-13.09 17.08) rotate(-22.5)"/><circle class="cls-37" cx="36.39" cy="41.43" r="34.1" transform="matrix(0.92, -0.38, 0.38, 0.92, -13.09, 17.08)"/><circle class="cls-38" cx="36.39" cy="41.42" r="34.03" transform="translate(-13.08 17.08) rotate(-22.5)"/><circle class="cls-39" cx="36.39" cy="41.41" r="33.97" transform="translate(-13.08 17.08) rotate(-22.5)"/><circle class="cls-40" cx="36.39" cy="41.4" r="33.9" transform="translate(-13.07 17.08) rotate(-22.5)"/><circle class="cls-41" cx="36.39" cy="41.39" r="33.83" transform="translate(-13.07 17.07) rotate(-22.5)"/><circle class="cls-42" cx="36.39" cy="41.38" r="33.76" transform="translate(-13.07 17.07) rotate(-22.5)"/><circle class="cls-43" cx="36.39" cy="41.37" r="33.7" transform="translate(-13.06 17.07) rotate(-22.5)"/><circle class="cls-44" cx="36.39" cy="41.36" r="33.63" transform="translate(-13.06 17.07) rotate(-22.5)"/><circle class="cls-45" cx="36.39" cy="41.35" r="33.56" transform="translate(-13.06 17.07) rotate(-22.5)"/><circle class="cls-46" cx="36.39" cy="41.34" r="33.49" transform="translate(-13.05 17.07) rotate(-22.5)"/><circle class="cls-47" cx="36.39" cy="41.33" r="33.43" transform="translate(-13.05 17.07) rotate(-22.5)"/><circle class="cls-48" cx="36.39" cy="41.32" r="33.36" transform="translate(-13.04 17.07) rotate(-22.5)"/><circle class="cls-49" cx="36.39" cy="41.31" r="33.29" transform="translate(-13.04 17.07) rotate(-22.5)"/><circle class="cls-50" cx="36.39" cy="41.3" r="33.23" transform="translate(-13.04 17.07) rotate(-22.5)"/><circle class="cls-51" cx="36.39" cy="41.3" r="33.16" transform="translate(-13.03 17.07) rotate(-22.5)"/><circle class="cls-52" cx="36.39" cy="41.29" r="33.09" transform="translate(-13.03 17.07) rotate(-22.5)"/><circle class="cls-53" cx="36.39" cy="41.28" r="33.02" transform="translate(-13.03 17.07) rotate(-22.5)"/><circle class="cls-54" cx="36.39" cy="41.27" r="32.96" transform="translate(-13.02 17.07) rotate(-22.5)"/><circle class="cls-55" cx="36.39" cy="41.26" r="32.89" transform="translate(-13.02 17.06) rotate(-22.5)"/><circle class="cls-56" cx="36.39" cy="41.25" r="32.82" transform="translate(-13.01 17.06) rotate(-22.5)"/><circle class="cls-57" cx="36.39" cy="41.24" r="32.75" transform="translate(-13.01 17.06) rotate(-22.5)"/><circle class="cls-58" cx="36.39" cy="41.23" r="32.69" transform="translate(-13.01 17.06) rotate(-22.5)"/><circle class="cls-59" cx="36.39" cy="41.22" r="32.62" transform="translate(-13 17.06) rotate(-22.5)"/><circle class="cls-60" cx="36.39" cy="41.21" r="32.55" transform="translate(-13 17.06) rotate(-22.5)"/><circle class="cls-61" cx="36.39" cy="41.2" r="32.49" transform="translate(-13 17.06) rotate(-22.5)"/><circle class="cls-62" cx="36.39" cy="41.19" r="32.42" transform="translate(-12.99 17.06) rotate(-22.5)"/><circle class="cls-63" cx="36.39" cy="41.18" r="32.35" transform="translate(-12.99 17.06) rotate(-22.5)"/><circle class="cls-64" cx="36.39" cy="41.17" r="32.28" transform="translate(-12.99 17.06) rotate(-22.5)"/><circle class="cls-65" cx="36.39" cy="41.16" r="32.22" transform="translate(-12.98 17.06) rotate(-22.5)"/><circle class="cls-66" cx="36.39" cy="41.15" r="32.15" transform="translate(-12.98 17.06) rotate(-22.5)"/><circle class="cls-67" cx="36.39" cy="41.14" r="32.08" transform="translate(-12.97 17.06) rotate(-22.5)"/><circle class="cls-68" cx="36.39" cy="41.13" r="32.02" transform="translate(-12.97 17.05) rotate(-22.5)"/><circle class="cls-69" cx="36.39" cy="41.12" r="31.95" transform="translate(-12.97 17.05) rotate(-22.5)"/><circle class="cls-70" cx="36.39" cy="41.11" r="31.88" transform="translate(-12.96 17.05) rotate(-22.5)"/><circle class="cls-71" cx="36.39" cy="41.1" r="31.81" transform="translate(-12.96 17.05) rotate(-22.5)"/><circle class="cls-72" cx="36.39" cy="41.09" r="31.75" transform="translate(-12.96 17.05) rotate(-22.5)"/><circle class="cls-73" cx="36.39" cy="41.08" r="31.68" transform="translate(-12.95 17.05) rotate(-22.5)"/><circle class="cls-74" cx="36.39" cy="41.07" r="31.61" transform="translate(-12.95 17.05) rotate(-22.5)"/><circle class="cls-75" cx="36.39" cy="41.06" r="31.54" transform="translate(-12.94 17.05) rotate(-22.5)"/><circle class="cls-76" cx="36.39" cy="41.05" r="31.48" transform="translate(-12.94 17.05) rotate(-22.5)"/><circle class="cls-77" cx="36.39" cy="41.04" r="31.41" transform="translate(-12.94 17.05) rotate(-22.5)"/><circle class="cls-78" cx="36.39" cy="41.03" r="31.34" transform="translate(-12.93 17.05) rotate(-22.5)"/><circle class="cls-79" cx="36.39" cy="41.02" r="31.28" transform="translate(-12.93 17.05) rotate(-22.5)"/><circle class="cls-80" cx="36.39" cy="41.01" r="31.21" transform="translate(-12.93 17.05) rotate(-22.5)"/><circle class="cls-81" cx="36.39" cy="41" r="31.14" transform="translate(-12.92 17.05) rotate(-22.5)"/><circle class="cls-82" cx="36.39" cy="40.99" r="31.07" transform="translate(-12.92 17.04) rotate(-22.5)"/><circle class="cls-83" cx="36.39" cy="40.98" r="31.01" transform="translate(-12.91 17.04) rotate(-22.5)"/><circle class="cls-84" cx="36.39" cy="40.97" r="30.94" transform="translate(-12.91 17.04) rotate(-22.5)"/><circle class="cls-85" cx="36.39" cy="40.97" r="30.87" transform="translate(-12.91 17.04) rotate(-22.5)"/><circle class="cls-86" cx="36.39" cy="40.96" r="30.81" transform="translate(-12.9 17.04) rotate(-22.5)"/><circle class="cls-87" cx="36.39" cy="40.95" r="30.74" transform="translate(-12.9 17.04) rotate(-22.5)"/><circle class="cls-88" cx="36.39" cy="40.94" r="30.67" transform="translate(-12.9 17.04) rotate(-22.5)"/><circle class="cls-89" cx="36.39" cy="40.93" r="30.6" transform="translate(-12.89 17.04) rotate(-22.5)"/><circle class="cls-90" cx="36.39" cy="40.92" r="30.54" transform="translate(-12.89 17.04) rotate(-22.5)"/><circle class="cls-91" cx="36.39" cy="40.91" r="30.47" transform="translate(-12.88 17.04) rotate(-22.5)"/><circle class="cls-92" cx="36.39" cy="40.9" r="30.4" transform="translate(-12.88 17.04) rotate(-22.5)"/><circle class="cls-93" cx="36.39" cy="40.89" r="30.33" transform="translate(-12.88 17.04) rotate(-22.5)"/><circle class="cls-94" cx="36.39" cy="40.88" r="30.27" transform="translate(-12.87 17.04) rotate(-22.5)"/><circle class="cls-95" cx="36.39" cy="40.87" r="30.2" transform="translate(-12.87 17.03) rotate(-22.5)"/><circle class="cls-96" cx="36.39" cy="40.86" r="30.13" transform="translate(-12.87 17.03) rotate(-22.5)"/><circle class="cls-97" cx="36.39" cy="40.85" r="30.07" transform="translate(-12.86 17.03) rotate(-22.5)"/><circle class="cls-98" cx="36.39" cy="40.84" r="30" transform="translate(-12.86 17.03) rotate(-22.5)"/><circle class="cls-99" cx="36.39" cy="40.83" r="29.93" transform="translate(-12.85 17.03) rotate(-22.5)"/><circle class="cls-100" cx="36.39" cy="40.82" r="29.86" transform="translate(-12.85 17.03) rotate(-22.5)"/><circle class="cls-101" cx="36.39" cy="40.81" r="29.8" transform="translate(-12.85 17.03) rotate(-22.5)"/><circle class="cls-102" cx="36.39" cy="40.8" r="29.73" transform="translate(-12.84 17.03) rotate(-22.5)"/><circle class="cls-103" cx="36.39" cy="40.79" r="29.66" transform="translate(-12.84 17.03) rotate(-22.5)"/><circle class="cls-104" cx="36.39" cy="40.78" r="29.6" transform="translate(-12.84 17.03) rotate(-22.5)"/><circle class="cls-105" cx="36.39" cy="40.77" r="29.53" transform="translate(-12.83 17.03) rotate(-22.5)"/><circle class="cls-106" cx="36.39" cy="40.76" r="29.46" transform="translate(-12.83 17.03) rotate(-22.5)"/><circle class="cls-107" cx="36.39" cy="40.75" r="29.39" transform="translate(-12.83 17.03) rotate(-22.5)"/><circle class="cls-108" cx="36.39" cy="40.74" r="29.33" transform="translate(-12.82 17.03) rotate(-22.5)"/><circle class="cls-109" cx="36.39" cy="40.73" r="29.26" transform="translate(-12.82 17.02) rotate(-22.5)"/><circle class="cls-110" cx="36.39" cy="40.72" r="29.19" transform="translate(-12.81 17.02) rotate(-22.5)"/><circle class="cls-111" cx="36.39" cy="40.71" r="29.12" transform="translate(-12.81 17.02) rotate(-22.5)"/><circle class="cls-112" cx="36.39" cy="40.7" r="29.06" transform="translate(-12.81 17.02) rotate(-22.5)"/><circle class="cls-113" cx="36.39" cy="40.69" r="28.99" transform="translate(-12.8 17.02) rotate(-22.5)"/><circle class="cls-114" cx="36.39" cy="40.68" r="28.92" transform="translate(-12.8 17.02) rotate(-22.5)"/><circle class="cls-115" cx="36.39" cy="40.67" r="28.86" transform="translate(-12.8 17.02) rotate(-22.5)"/><circle class="cls-116" cx="36.39" cy="40.66" r="28.79" transform="translate(-12.79 17.02) rotate(-22.5)"/><circle class="cls-117" cx="36.39" cy="40.65" r="28.72" transform="translate(-12.79 17.02) rotate(-22.5)"/><circle class="cls-118" cx="36.39" cy="40.64" r="28.65" transform="translate(-12.78 17.02) rotate(-22.5)"/><circle class="cls-119" cx="36.39" cy="40.63" r="28.59" transform="translate(-12.78 17.02) rotate(-22.5)"/><circle class="cls-120" cx="36.39" cy="40.63" r="28.52" transform="translate(-12.78 17.02) rotate(-22.5)"/><circle class="cls-121" cx="36.39" cy="40.62" r="28.45" transform="translate(-12.77 17.02) rotate(-22.5)"/><circle class="cls-122" cx="36.39" cy="40.61" r="28.39" transform="translate(-12.77 17.01) rotate(-22.5)"/><circle class="cls-123" cx="36.39" cy="40.6" r="28.32" transform="translate(-12.77 17.01) rotate(-22.5)"/><circle class="cls-124" cx="36.39" cy="40.59" r="28.25" transform="translate(-12.76 17.01) rotate(-22.5)"/><circle class="cls-125" cx="36.39" cy="40.58" r="28.18" transform="translate(-12.76 17.01) rotate(-22.5)"/><circle class="cls-126" cx="36.39" cy="40.57" r="28.12" transform="translate(-12.75 17.01) rotate(-22.5)"/><circle class="cls-127" cx="36.39" cy="40.56" r="28.05" transform="translate(-12.75 17.01) rotate(-22.5)"/><circle class="cls-128" cx="36.39" cy="40.55" r="27.98" transform="translate(-12.75 17.01) rotate(-22.5)"/><circle class="cls-129" cx="36.39" cy="40.54" r="27.91" transform="translate(-12.74 17.01) rotate(-22.5)"/><circle class="cls-130" cx="36.39" cy="40.53" r="27.85" transform="translate(-12.74 17.01) rotate(-22.5)"/><circle class="cls-131" cx="36.39" cy="40.52" r="27.78" transform="translate(-12.74 17.01) rotate(-22.5)"/><circle class="cls-132" cx="36.39" cy="40.51" r="27.71" transform="translate(-12.73 17.01) rotate(-22.5)"/><circle class="cls-133" cx="36.39" cy="40.5" r="27.65" transform="matrix(0.92, -0.38, 0.38, 0.92, -12.73, 17.01)"/><circle class="cls-134" cx="36.39" cy="40.49" r="27.58" transform="translate(-12.72 17.01) rotate(-22.5)"/><circle class="cls-135" cx="36.39" cy="40.48" r="27.51" transform="translate(-12.72 17.01) rotate(-22.5)"/><circle class="cls-136" cx="36.39" cy="40.47" r="27.44" transform="translate(-12.72 17) rotate(-22.5)"/><circle class="cls-137" cx="36.39" cy="40.46" r="27.38" transform="translate(-12.71 17) rotate(-22.5)"/><circle class="cls-138" cx="36.39" cy="40.45" r="27.31" transform="translate(-12.71 17) rotate(-22.5)"/><circle class="cls-139" cx="36.39" cy="40.44" r="27.24" transform="translate(-12.71 17) rotate(-22.5)"/><circle class="cls-140" cx="36.39" cy="40.43" r="27.18" transform="translate(-12.7 17) rotate(-22.5)"/><circle class="cls-141" cx="36.39" cy="40.42" r="27.11" transform="translate(-12.7 17) rotate(-22.5)"/><circle class="cls-142" cx="36.39" cy="40.41" r="27.04" transform="translate(-12.7 17) rotate(-22.5)"/><circle class="cls-143" cx="36.39" cy="40.4" r="26.97" transform="translate(-12.69 17) rotate(-22.5)"/><circle class="cls-144" cx="36.39" cy="40.39" r="26.91" transform="translate(-12.69 17) rotate(-22.5)"/><circle class="cls-145" cx="36.39" cy="40.38" r="26.84" transform="matrix(0.92, -0.38, 0.38, 0.92, -12.68, 17)"/><circle class="cls-146" cx="36.39" cy="40.37" r="26.77" transform="translate(-12.68 17) rotate(-22.5)"/><circle class="cls-147" cx="36.39" cy="40.36" r="26.7" transform="translate(-12.68 17) rotate(-22.5)"/><circle class="cls-148" cx="36.39" cy="40.35" r="26.64" transform="translate(-12.67 17) rotate(-22.5)"/><circle class="cls-149" cx="36.39" cy="40.34" r="26.57" transform="translate(-12.67 16.99) rotate(-22.5)"/><circle class="cls-150" cx="36.39" cy="40.33" r="26.5" transform="translate(-12.67 16.99) rotate(-22.5)"/><circle class="cls-151" cx="36.39" cy="40.32" r="26.44" transform="translate(-12.66 16.99) rotate(-22.5)"/><circle class="cls-152" cx="36.39" cy="40.31" r="26.37" transform="translate(-12.66 16.99) rotate(-22.5)"/><circle class="cls-153" cx="36.39" cy="40.3" r="26.3" transform="translate(-12.65 16.99) rotate(-22.5)"/><circle class="cls-154" cx="36.39" cy="40.3" r="26.23" transform="translate(-12.65 16.99) rotate(-22.5)"/><circle class="cls-155" cx="36.39" cy="40.29" r="26.17" transform="translate(-12.65 16.99) rotate(-22.5)"/><circle class="cls-156" cx="36.39" cy="40.28" r="26.1" transform="translate(-12.64 16.99) rotate(-22.5)"/><circle class="cls-157" cx="36.39" cy="40.27" r="26.03" transform="translate(-12.64 16.99) rotate(-22.5)"/><circle class="cls-158" cx="36.39" cy="40.26" r="25.97" transform="translate(-12.64 16.99) rotate(-22.5)"/><circle class="cls-159" cx="36.39" cy="40.25" r="25.9" transform="translate(-12.63 16.99) rotate(-22.5)"/><circle class="cls-160" cx="36.39" cy="40.24" r="25.83" transform="translate(-12.63 16.99) rotate(-22.5)"/><circle class="cls-161" cx="36.39" cy="40.23" r="25.76" transform="translate(-12.62 16.99) rotate(-22.5)"/><circle class="cls-162" cx="36.39" cy="40.22" r="25.7" transform="translate(-12.62 16.99) rotate(-22.5)"/><circle class="cls-163" cx="36.39" cy="40.21" r="25.63" transform="translate(-12.62 16.98) rotate(-22.5)"/><circle class="cls-164" cx="36.39" cy="40.2" r="25.56" transform="translate(-12.61 16.98) rotate(-22.5)"/><circle class="cls-165" cx="36.39" cy="40.19" r="25.49" transform="translate(-12.61 16.98) rotate(-22.5)"/><circle class="cls-166" cx="36.39" cy="40.18" r="25.43" transform="matrix(0.92, -0.38, 0.38, 0.92, -12.61, 16.98)"/><circle class="cls-167" cx="36.39" cy="40.17" r="25.36" transform="translate(-12.6 16.98) rotate(-22.5)"/><circle class="cls-168" cx="36.39" cy="40.16" r="25.29" transform="translate(-12.6 16.98) rotate(-22.5)"/><circle class="cls-169" cx="36.39" cy="40.15" r="25.23" transform="translate(-12.59 16.98) rotate(-22.5)"/><circle class="cls-170" cx="36.39" cy="40.14" r="25.16" transform="translate(-12.59 16.98) rotate(-22.5)"/><circle class="cls-171" cx="36.39" cy="40.13" r="25.09" transform="translate(-12.59 16.98) rotate(-22.5)"/><circle class="cls-172" cx="36.39" cy="40.12" r="25.02" transform="translate(-12.58 16.98) rotate(-22.5)"/><circle class="cls-173" cx="36.39" cy="40.11" r="24.96" transform="translate(-12.58 16.98) rotate(-22.5)"/><circle class="cls-174" cx="36.39" cy="40.1" r="24.89" transform="translate(-12.58 16.98) rotate(-22.5)"/><circle class="cls-175" cx="36.39" cy="40.09" r="24.82" transform="translate(-12.57 16.98) rotate(-22.5)"/><circle class="cls-176" cx="36.39" cy="40.08" r="24.76" transform="translate(-12.57 16.98) rotate(-22.5)"/><circle class="cls-177" cx="36.39" cy="40.07" r="24.69" transform="translate(-12.57 16.97) rotate(-22.5)"/><circle class="cls-178" cx="36.39" cy="40.06" r="24.62" transform="translate(-12.56 16.97) rotate(-22.5)"/><circle class="cls-179" cx="36.39" cy="40.05" r="24.55" transform="translate(-12.56 16.97) rotate(-22.5)"/><circle class="cls-180" cx="36.39" cy="40.04" r="24.49" transform="translate(-12.55 16.97) rotate(-22.5)"/><circle class="cls-181" cx="36.39" cy="40.03" r="24.42" transform="translate(-12.55 16.97) rotate(-22.5)"/><circle class="cls-182" cx="36.39" cy="40.02" r="24.35" transform="translate(-12.55 16.97) rotate(-22.5)"/><circle class="cls-183" cx="36.39" cy="40.01" r="24.28" transform="translate(-12.54 16.97) rotate(-22.5)"/><circle class="cls-184" cx="36.39" cy="40" r="24.22" transform="translate(-12.54 16.97) rotate(-22.5)"/><circle class="cls-185" cx="36.39" cy="39.99" r="24.15" transform="translate(-12.54 16.97) rotate(-22.5)"/><circle class="cls-186" cx="36.39" cy="39.98" r="24.08" transform="translate(-12.53 16.97) rotate(-22.5)"/><circle class="cls-187" cx="36.39" cy="39.97" r="24.02" transform="translate(-12.53 16.97) rotate(-22.5)"/><circle class="cls-188" cx="36.39" cy="39.97" r="23.95" transform="translate(-12.52 16.97) rotate(-22.5)"/><circle class="cls-189" cx="36.39" cy="39.96" r="23.88" transform="translate(-12.52 16.97) rotate(-22.5)"/><circle class="cls-190" cx="36.39" cy="39.95" r="23.81" transform="translate(-12.52 16.96) rotate(-22.5)"/><circle class="cls-191" cx="36.39" cy="39.94" r="23.75" transform="translate(-12.51 16.96) rotate(-22.5)"/><circle class="cls-192" cx="36.39" cy="39.93" r="23.68" transform="translate(-12.51 16.96) rotate(-22.5)"/><circle class="cls-193" cx="36.39" cy="39.92" r="23.61" transform="translate(-12.51 16.96) rotate(-22.5)"/><circle class="cls-194" cx="36.39" cy="39.91" r="23.55" transform="translate(-12.5 16.96) rotate(-22.5)"/><circle class="cls-195" cx="36.39" cy="39.9" r="23.48"/><circle class="cls-196" cx="36.39" cy="39.89" r="23.41"/><circle class="cls-197" cx="36.39" cy="39.88" r="23.34"/><circle class="cls-198" cx="36.39" cy="39.87" r="23.28"/><circle class="cls-199" cx="36.39" cy="39.86" r="23.21"/><circle class="cls-200" cx="36.39" cy="39.85" r="23.14"/><circle class="cls-201" cx="36.39" cy="39.84" r="23.07"/><circle class="cls-202" cx="36.39" cy="39.83" r="23.01"/><circle class="cls-203" cx="36.39" cy="39.82" r="22.94"/><circle class="cls-204" cx="36.39" cy="39.81" r="22.87"/><circle class="cls-205" cx="36.39" cy="39.8" r="22.81"/><circle class="cls-206" cx="36.39" cy="39.79" r="22.74"/><circle class="cls-207" cx="36.39" cy="39.78" r="22.67"/><circle class="cls-208" cx="36.39" cy="39.77" r="22.6"/><circle class="cls-209" cx="36.39" cy="39.76" r="22.54"/></g><circle class="cls-210" cx="36.39" cy="31.49" r="31.49" transform="translate(-9.28 16.32) rotate(-22.5)"/><path class="cls-211" d="M44.12,15.81H28.65a1.85,1.85,0,0,0-1.92,1.77V46.91a1.86,1.86,0,0,0,1.92,1.78H44.12A1.86,1.86,0,0,0,46,46.91V17.58A1.85,1.85,0,0,0,44.12,15.81Zm-14.68,1a.66.66,0,1,1-.66.65A.65.65,0,0,1,29.44,16.82Zm15.44,28.5h-17V19.18h17Z"/><path class="cls-211" d="M39.19,35.93A4.06,4.06,0,1,0,43.25,40,4.06,4.06,0,0,0,39.19,35.93Zm0,7.28A3.22,3.22,0,1,1,42.4,40,3.22,3.22,0,0,1,39.19,43.21Z"/><polygon class="cls-211" points="37.99 39.34 36.89 39.34 38.92 42.52 41.71 38.73 40.48 38.73 38.89 40.85 37.99 39.34"/><path class="cls-211" d="M41.79,29.24a1.4,1.4,0,0,1-1.4,1.4H28.77v-2.8H40.39A1.4,1.4,0,0,1,41.79,29.24Z"/><rect class="cls-211" x="28.77" y="38.6" width="7.01" height="2.8"/><path class="cls-211" d="M36.32,34.62a1.4,1.4,0,0,1-1.4,1.4H28.77v-2.8h6.15A1.4,1.4,0,0,1,36.32,34.62Z"/><path class="cls-211" d="M39.54,23.86a1.4,1.4,0,0,1-1.4,1.4H28.77v-2.8h9.37A1.4,1.4,0,0,1,39.54,23.86Z"/></g></g></g></svg>